<svg width="529" height="524" viewBox="0 0 529 524" fill="none" xmlns="http://www.w3.org/2000/svg">
<path d="M444.89 100.463H425.775V119.576H444.89V100.463Z" fill="#FFF4DE"/>
<path d="M436.36 98.1084H434.306V102.908H436.36V98.1084Z" fill="#F1B104"/>
<path d="M413.896 100.463V139.287C413.896 141.021 413.207 142.684 411.981 143.911C410.755 145.137 409.091 145.826 407.357 145.826H373.747C375.423 145.744 377.002 145.02 378.159 143.806C379.315 142.591 379.959 140.978 379.959 139.3V100.463H413.896Z" fill="#D6EAF2"/>
<path d="M396.916 98.1084H394.862V102.908H396.916V98.1084Z" fill="#F1B104"/>
<path d="M386.471 109.847H406.57" stroke="#639AD6" stroke-width="3" stroke-miterlimit="10"/>
<path d="M386.471 114.831H406.57" stroke="#639AD6" stroke-width="3" stroke-miterlimit="10"/>
<path d="M386.471 119.81H406.57" stroke="#639AD6" stroke-width="3" stroke-miterlimit="10"/>
<path d="M386.471 124.794H406.57" stroke="#639AD6" stroke-width="3" stroke-miterlimit="10"/>
<path d="M386.471 129.778H406.57" stroke="#639AD6" stroke-width="3" stroke-miterlimit="10"/>
<path d="M286.797 351.242L261.466 474.247H263.889L297.782 351.273" fill="#D6EAF2"/>
<path d="M376.628 348.339L402.458 474.247H400.112L366.25 351.219" fill="#D6EAF2"/>
<path d="M341.45 351.242L366.776 474.247H364.354L330.461 351.273" fill="#D6EAF2"/>
<path d="M404.287 290.829L389.006 336.241C387.455 340.851 384.494 344.858 380.543 347.694C376.591 350.531 371.848 352.055 366.983 352.051H280.455C275.591 352.054 270.848 350.53 266.897 347.694C262.945 344.857 259.984 340.851 258.432 336.241L245.848 298.887C245.339 297.375 245.198 295.765 245.435 294.188C245.672 292.611 246.281 291.114 247.212 289.819C248.142 288.524 249.368 287.469 250.786 286.741C252.205 286.014 253.777 285.634 255.372 285.634H265.057C267.272 285.643 269.415 284.85 271.089 283.401C272.763 281.951 273.855 279.944 274.163 277.751L279.808 237.687C280.459 233.059 282.761 228.822 286.289 225.756C289.817 222.69 294.334 221.001 299.009 221.001H376.916C379.69 221.001 382.431 221.597 384.955 222.747C387.479 223.897 389.727 225.574 391.548 227.667C393.368 229.76 394.718 232.219 395.507 234.877C396.296 237.536 396.505 240.334 396.121 243.08L391.276 277.648C391.136 278.641 391.211 279.652 391.496 280.613C391.78 281.574 392.268 282.463 392.925 283.22C393.582 283.977 394.394 284.584 395.306 285C396.218 285.417 397.208 285.633 398.211 285.634H400.548C401.174 285.633 401.791 285.78 402.348 286.065C402.905 286.35 403.387 286.763 403.752 287.271C404.118 287.779 404.357 288.367 404.45 288.985C404.543 289.604 404.487 290.236 404.287 290.829Z" fill="#D6EAF2"/>
<path d="M397.761 285.149H391.361C387.177 285.113 383.088 286.397 379.674 288.817C376.261 291.237 373.696 294.671 372.345 298.631L361.383 329.082C359.978 333.252 357.301 336.876 353.727 339.444C350.153 342.012 345.864 343.394 341.463 343.395H261.713" stroke="white" stroke-width="3" stroke-miterlimit="10"/>
<path d="M329.796 119.024C349.486 119.473 341.445 140.172 352.619 143.799C360.529 146.365 370.48 150.144 370.269 166.013C370.093 179.104 368.956 180.928 378.947 186.519C392.638 194.159 388.943 219.909 361.342 218.992" stroke="#41465A" stroke-width="3" stroke-miterlimit="10"/>
<path d="M299.782 133.921C300.263 132.609 304.276 115.262 330.42 118.318C349.98 120.605 342.106 142.729 351.365 145.853C358.385 148.217 369.176 151.807 368.021 167.635C367.068 180.69 365.824 182.465 375.464 188.618C388.678 197.084 383.455 222.547 355.958 219.986C328.461 217.424 287.305 218.408 285.444 213.078C284.096 209.169 272.469 186.029 289.381 176.007C294.469 172.992 303.863 169.329 302.865 163.469C300.842 151.605 294.739 147.664 299.782 133.921Z" fill="#252954"/>
<path d="M332.636 158.292C332.636 158.292 331.185 177.068 338.704 182.825L318.236 182.456C318.236 182.456 318.717 161.663 318.236 158.301L332.636 158.292Z" fill="#FFB3A4"/>
<path d="M322.834 173.576C330.591 173.576 336.879 168.983 336.879 163.316C336.879 157.65 330.591 153.057 322.834 153.057C315.077 153.057 308.789 157.65 308.789 163.316C308.789 168.983 315.077 173.576 322.834 173.576Z" fill="#242854"/>
<path d="M337.769 151.421C337.769 151.421 333.67 169.316 318.919 168.687C309.112 168.269 304.042 151.349 303.328 143.246C302.73 136.483 311.548 131.283 318.007 132.654C325.962 134.344 326.393 147.542 334.753 146.774L337.769 151.421Z" fill="#FFB3A4"/>
<path d="M313.885 144.397C310.488 145.263 307.177 146.443 303.997 147.92C303.501 146.248 303.159 144.533 302.977 142.797C302.528 137.854 307.117 133.76 312.132 132.434C312.658 132.605 313.202 132.793 313.773 133.005C316.366 133.962 312.231 138.923 313.885 144.397Z" fill="#EA786C"/>
<path d="M316.986 132.312C319.715 133.319 313.688 138.604 315.004 144.446C309.222 145.694 303.511 147.25 297.894 149.106C297.894 149.106 292.73 141.174 296.811 135.768C300.892 130.362 308.218 129.077 316.986 132.312Z" fill="#252954"/>
<path d="M334.861 152.288C337.599 152.288 339.818 150.069 339.818 147.331C339.818 144.594 337.599 142.374 334.861 142.374C332.123 142.374 329.904 144.594 329.904 147.331C329.904 150.069 332.123 152.288 334.861 152.288Z" fill="#FFB3A4"/>
<path d="M293.233 192.114C299.93 188.734 307.238 193.314 303.615 203.96C300.991 211.667 277.57 257.196 274.914 261.151C258.783 270.175 195.51 259.933 195.51 259.933C195.51 259.933 186.71 263.685 184.157 263.717C183.038 263.717 176.228 262.44 176.228 262.44C176.228 262.44 176.008 261.654 177.055 260.674C178.103 259.695 185.424 260.8 182.826 258.427C181.671 257.38 175.635 259.393 172.938 261.784C170.242 264.175 169.096 262.148 169.096 262.148C169.096 262.148 171.761 257.627 172.691 256.827C173.622 256.027 179.671 252.711 183.694 252.333C186.611 252.059 193.582 252.877 197.213 253.915C211.344 251.174 240.198 247.386 258.931 248.496C258.904 248.518 278.356 199.623 293.233 192.114Z" fill="#FFB3A4"/>
<path d="M337.72 176.205C337.72 176.205 342.034 184.074 365.72 192.204C365.72 192.204 365.635 202.387 361.792 215.779C355.711 236.973 347.859 266.606 347.976 278.277C347.976 278.277 322.434 285.634 296.087 278.277C296.087 278.277 296.285 242.918 294.042 241.319C291.799 239.719 286.006 224.889 287.925 217.532C289.844 210.175 297.485 190.963 297.485 190.963C297.485 190.963 313.121 186.285 314.461 177.005C322.216 177.72 330.031 177.452 337.72 176.205Z" fill="#FFF4DE"/>
<path d="M205.069 413.897C200.98 429.1 187.734 443.652 188.552 446.919C189.37 450.186 194.472 454.19 193.137 459.34C192.202 462.936 184.714 461.192 178.912 464.082C173.109 466.971 175.01 469.973 165.689 470.297C156.367 470.62 148.516 470.297 148.516 470.297C148.516 470.297 148.677 466.702 152.929 465.884C157.181 465.066 171.06 456.896 175.312 440.38C179.249 425.101 180.543 413.897 180.543 413.897H205.069Z" fill="#FFB3A4"/>
<path d="M205.069 413.897C203.86 418.391 201.753 422.813 199.631 426.93C190.157 426.229 183.622 423.914 179.334 421.815C180.202 416.872 180.543 413.92 180.543 413.92L205.069 413.897Z" fill="#3A193F"/>
<path d="M296.276 273.968L289.597 280.673C287.143 281.324 220.602 302.415 211.609 314.674C202.616 326.934 173.352 416.023 173.352 416.023C173.352 416.023 185.775 424.746 215.865 421.46C215.865 421.46 233.025 385.625 235.479 336.416C235.479 336.416 311.503 341.652 322.623 323.339C333.742 305.026 324.272 277.401 324.272 277.401C324.272 277.401 304.699 276.534 296.276 273.968Z" fill="#A1CBE2"/>
<path d="M192.148 470.454H143.715C142.507 470.454 141.527 471.434 141.527 472.643V472.863C141.527 474.072 142.507 475.051 143.715 475.051H192.148C193.357 475.051 194.337 474.072 194.337 472.863V472.643C194.337 471.434 193.357 470.454 192.148 470.454Z" fill="#F9C543"/>
<path d="M172.916 470.454C172.916 470.454 166.813 463.322 165.666 456.284C165.262 453.795 157.522 457.403 153.172 459.192C141.347 464.05 143.823 470.454 143.823 470.454H172.916Z" fill="#F9C543"/>
<path d="M260.756 414.58C263.682 420.971 272.253 442.236 272.442 449.373C272.747 459.88 254.154 468.854 252.895 469.901C250.805 471.64 253.277 472.984 253.277 472.984C253.277 472.984 288.042 469.029 291.93 467.232C295.818 465.434 286.865 455.511 285.961 448.213C285.058 440.915 286.357 420.647 284.752 411.619L260.756 414.58Z" fill="#FFB3A4"/>
<path d="M285.629 424.97C280.321 426.709 273.386 428.615 266.752 429.32C264.455 423.168 262.051 417.411 260.752 414.58L284.775 411.619C285.372 414.944 285.57 419.802 285.629 424.97Z" fill="#3A193F"/>
<path d="M348.016 273.968C348.016 273.968 369.545 312.059 353.688 331.014C336.569 351.484 265.242 343.791 265.242 343.791C265.242 343.791 288.289 368.791 291.723 422.575C291.723 422.575 268.159 426.993 253.781 423.231C253.781 423.231 233.079 354.024 231.389 334.636C229.268 310.261 307.908 293.907 307.908 293.907L311.085 276.381C311.085 276.381 327.283 278.686 348.016 273.968Z" fill="#A1CBE2"/>
<path d="M294.575 467.37L246.507 473.297C245.307 473.445 244.454 474.537 244.602 475.737L244.629 475.955C244.777 477.155 245.87 478.008 247.069 477.86L295.138 471.933C296.338 471.785 297.19 470.692 297.042 469.493L297.015 469.274C296.867 468.074 295.775 467.222 294.575 467.37Z" fill="#F9C543"/>
<path d="M275.462 469.74C275.462 469.74 270.968 458.954 260.028 460.302C249.088 461.65 246.59 473.303 246.59 473.303L275.462 469.74Z" fill="#F9C543"/>
<path d="M383.738 265.703C371.473 273.482 311.827 249.269 311.827 249.269C311.827 249.269 308.231 254.441 304.263 254.441C300.294 254.441 296.622 252.895 294.555 254.495C292.487 256.095 290.33 258.692 288.748 258.922C286.851 259.232 284.907 259.054 283.098 258.405C283.098 258.405 284.446 256.005 285.862 253.695C284.599 254.544 282.882 256.436 281.925 257.178C281.551 257.493 281.083 257.674 280.594 257.692C280.106 257.711 279.625 257.566 279.228 257.281C279.228 257.281 281.997 253.448 283.067 252.432C284.136 251.417 287.175 250.1 289.098 249.394C291.211 248.576 303.431 243.804 309.463 243.103C315.863 242.357 367.985 247.475 367.985 247.475C367.985 247.475 356.115 217.905 355.347 210.243C354.214 198.94 359.019 192.078 364.785 192.069C375.051 192.028 393.909 259.254 383.738 265.703Z" fill="#FFB3A4"/>
<path d="M285.022 258.881C284.977 258.883 284.933 258.87 284.896 258.845C284.87 258.829 284.847 258.807 284.83 258.782C284.812 258.757 284.799 258.728 284.793 258.698C284.786 258.668 284.785 258.637 284.791 258.607C284.796 258.577 284.807 258.548 284.824 258.522C285.237 257.875 288.901 252.163 290.195 251.52C292.442 250.414 295.368 248.954 295.368 248.954L295.579 249.376L290.406 251.942C289.408 252.437 286.325 257.043 285.22 258.773C285.199 258.807 285.169 258.834 285.135 258.853C285.1 258.872 285.061 258.882 285.022 258.881Z" fill="#DB7800"/>
<path d="M287.593 258.881C287.55 258.881 287.509 258.869 287.473 258.848C287.436 258.826 287.407 258.794 287.387 258.757C287.367 258.72 287.358 258.678 287.36 258.635C287.362 258.593 287.376 258.552 287.399 258.517C287.543 258.301 290.972 253.295 292.285 252.648C294.532 251.538 297.458 250.082 297.458 250.082L297.669 250.5C297.669 250.5 294.739 251.96 292.496 253.066C291.494 253.56 288.757 257.358 287.786 258.782C287.764 258.813 287.735 258.838 287.701 258.855C287.668 258.872 287.63 258.881 287.593 258.881Z" fill="#DB7800"/>
<path d="M494.923 267.716H40.1312V277.464H494.923V267.716Z" fill="#FFF4DE"/>
<path d="M482.32 441.337H425.69V448.173H482.32V441.337Z" fill="#F4E8CE"/>
<path d="M474.446 277.787H433.488V286.847H474.446V277.787Z" fill="#FFF4DE"/>
<path d="M490.298 475.047C489.325 475.047 488.383 474.707 487.635 474.084C486.886 473.462 486.38 472.597 486.204 471.64L454.909 301.39C454.868 301.17 454.752 300.971 454.58 300.827C454.408 300.684 454.191 300.605 453.967 300.605C453.743 300.605 453.526 300.684 453.354 300.827C453.182 300.971 453.066 301.17 453.025 301.39L421.726 471.64C421.55 472.598 421.044 473.463 420.296 474.085C419.548 474.708 418.605 475.048 417.631 475.047C417.021 475.047 416.418 474.913 415.866 474.654C415.313 474.396 414.824 474.019 414.434 473.55C414.043 473.081 413.76 472.532 413.605 471.942C413.45 471.352 413.427 470.735 413.537 470.135L447.29 286.528H460.639L494.393 470.135C494.503 470.735 494.481 471.352 494.326 471.943C494.172 472.533 493.889 473.083 493.498 473.551C493.107 474.02 492.618 474.397 492.065 474.656C491.512 474.914 490.909 475.048 490.298 475.047Z" fill="#FFF4DE"/>
<path d="M109.445 441.337H52.8146V448.173H109.445V441.337Z" fill="#F4E8CE"/>
<path d="M101.566 277.787H60.608V286.847H101.566V277.787Z" fill="#FFF4DE"/>
<path d="M117.423 475.047C116.45 475.047 115.507 474.707 114.759 474.084C114.011 473.462 113.505 472.597 113.328 471.64L82.0287 301.394C81.9882 301.174 81.8719 300.975 81.6999 300.832C81.5278 300.688 81.311 300.61 81.0871 300.61C80.8632 300.61 80.6463 300.688 80.4743 300.832C80.3022 300.975 80.1859 301.174 80.1455 301.394L48.8504 471.64C48.6739 472.597 48.1676 473.462 47.4196 474.084C46.6715 474.707 45.7291 475.047 44.756 475.047C44.1455 475.048 43.5424 474.914 42.9893 474.656C42.4363 474.397 41.947 474.02 41.5562 473.551C41.1653 473.083 40.8826 472.533 40.7279 471.943C40.5733 471.352 40.5506 470.735 40.6615 470.135L74.4105 286.528H87.7636L121.517 470.135C121.627 470.735 121.604 471.352 121.449 471.942C121.294 472.532 121.011 473.081 120.621 473.55C120.23 474.019 119.741 474.396 119.188 474.654C118.636 474.913 118.033 475.047 117.423 475.047Z" fill="#FFF4DE"/>
<path d="M166.615 186.168C169.006 186.168 170.66 183.84 170.66 181.391V167.675C170.66 167.043 170.536 166.416 170.295 165.832C170.053 165.247 169.699 164.715 169.252 164.268C168.805 163.82 168.274 163.465 167.69 163.222C167.105 162.979 166.479 162.854 165.846 162.853H134.614C133.981 162.853 133.354 162.978 132.769 163.221C132.184 163.463 131.653 163.818 131.206 164.266C130.758 164.714 130.403 165.246 130.161 165.831C129.92 166.416 129.795 167.042 129.796 167.675V181.391C129.796 182.669 130.304 183.894 131.207 184.798C132.111 185.701 133.336 186.209 134.614 186.209H152.92C157.415 186.209 159.815 193.399 159.815 193.399C159.815 193.399 161.352 186.168 166.615 186.168Z" fill="#FFF4DE"/>
<path d="M141.297 176.21C142.29 176.21 143.095 175.405 143.095 174.412C143.095 173.419 142.29 172.614 141.297 172.614C140.304 172.614 139.5 173.419 139.5 174.412C139.5 175.405 140.304 176.21 141.297 176.21Z" fill="#F9C543"/>
<path d="M150.223 176.326C151.216 176.326 152.021 175.522 152.021 174.529C152.021 173.536 151.216 172.731 150.223 172.731C149.23 172.731 148.426 173.536 148.426 174.529C148.426 175.522 149.23 176.326 150.223 176.326Z" fill="#F9C543"/>
<path d="M159.149 176.326C160.142 176.326 160.947 175.522 160.947 174.529C160.947 173.536 160.142 172.731 159.149 172.731C158.157 172.731 157.352 173.536 157.352 174.529C157.352 175.522 158.157 176.326 159.149 176.326Z" fill="#F9C543"/>
<path d="M227.807 203.084H154.722C153.915 203.083 153.12 203.277 152.404 203.65C151.688 204.023 151.073 204.564 150.611 205.226C150.15 205.889 149.856 206.653 149.754 207.454C149.652 208.254 149.745 209.068 150.026 209.825L168.453 259.888H254.037L234.98 208.072C234.438 206.607 233.46 205.343 232.177 204.451C230.895 203.56 229.369 203.082 227.807 203.084Z" fill="#F1B104"/>
<path d="M226.369 205.623H155.104C154.319 205.623 153.545 205.813 152.849 206.176C152.152 206.54 151.554 207.066 151.105 207.71C150.656 208.354 150.369 209.097 150.268 209.876C150.168 210.655 150.258 211.447 150.529 212.184L168.507 261.002H251.947L233.367 210.503C232.839 209.072 231.886 207.837 230.634 206.964C229.383 206.092 227.894 205.623 226.369 205.623Z" fill="#F9C543"/>
<path d="M168.287 259.874H308.478C309.419 259.874 310.351 260.06 311.22 260.42C312.089 260.78 312.879 261.307 313.544 261.972C314.21 262.638 314.737 263.427 315.097 264.296C315.457 265.166 315.643 266.097 315.643 267.038V267.231H175.451C173.551 267.231 171.729 266.476 170.385 265.133C169.041 263.789 168.287 261.967 168.287 260.068V259.874Z" fill="#F1B104"/>
<path d="M205.316 239.164C207.934 236.257 207.147 231.282 203.559 228.052C199.971 224.822 194.941 224.56 192.323 227.466C189.706 230.373 190.492 235.348 194.08 238.579C197.668 241.809 202.698 242.071 205.316 239.164Z" fill="#FFD473"/>
<path d="M272.132 262.508H266.158V264.651H272.132V262.508Z" fill="#3A193F"/>
<path d="M283.543 262.508H277.57V264.651H283.543V262.508Z" fill="#F1B104"/>
<path d="M426.378 247.102H424.067V242.424H402.984V263.717C402.983 264.242 403.086 264.762 403.287 265.248C403.488 265.734 403.783 266.175 404.154 266.546C404.526 266.918 404.967 267.212 405.452 267.413C405.938 267.614 406.458 267.717 406.984 267.716H420.067C421.128 267.716 422.146 267.295 422.896 266.545C423.646 265.795 424.067 264.778 424.067 263.717V256.459H426.378C427.618 256.459 428.809 255.966 429.686 255.089C430.563 254.211 431.056 253.021 431.056 251.781C431.056 250.54 430.563 249.35 429.686 248.473C428.809 247.595 427.618 247.102 426.378 247.102ZM428.023 253.524C427.794 253.753 427.522 253.935 427.223 254.058C426.923 254.181 426.602 254.244 426.279 254.243H424.067V249.3H426.279C426.767 249.299 427.244 249.443 427.649 249.714C428.055 249.984 428.372 250.369 428.559 250.82C428.745 251.27 428.794 251.766 428.699 252.244C428.603 252.723 428.368 253.162 428.023 253.506V253.524Z" fill="white" stroke="#F1B104" stroke-width="3" stroke-miterlimit="10"/>
<path d="M415.132 240.429C414.022 239.292 408.206 235.485 409.505 230.007C410.804 224.529 419.038 225.715 418.786 219.595C418.571 214.404 414.022 216.485 413.025 218.377C413.025 218.377 413.627 211.528 419.883 213.815C430.445 217.676 418.184 228.646 414.678 231.679C411.46 234.47 415.132 240.429 415.132 240.429Z" fill="#FFF4DE"/>
<path d="M422.517 225.747C422.517 225.747 421.169 230.371 415.681 232.645C415.681 232.645 424.103 232.645 422.517 225.747Z" fill="#FFF4DE"/>
<path d="M483.269 267.716C483.269 267.716 499.071 181.149 419.923 169.064" stroke="#F1B104" stroke-width="3" stroke-miterlimit="10"/>
<path d="M483.579 267.236H441.448C444.387 260.418 452.684 255.502 462.513 255.502C472.343 255.502 480.639 260.418 483.579 267.236Z" fill="#F9C543"/>
<path d="M483.579 267.236H478.275C475.484 260.769 467.592 256.104 458.288 256.104C457.632 256.104 456.985 256.104 456.347 256.176C458.371 255.726 460.439 255.5 462.513 255.502C472.316 255.502 480.639 260.418 483.579 267.236Z" fill="#F1B104"/>
<path d="M420.602 169.873C420.22 171.585 418.872 172.924 416.957 173.738C414.764 174.673 411.824 174.92 408.768 174.241C405.712 173.563 403.155 172.12 401.55 170.322C400.157 168.777 399.496 166.992 399.874 165.28C400.687 161.604 405.986 159.649 411.712 160.912C417.438 162.175 421.416 166.188 420.602 169.873Z" fill="#F9C543"/>
<path d="M420.603 169.874C420.247 171.478 419.034 172.759 417.299 173.586C418.114 172.943 418.689 172.044 418.931 171.033C419.69 167.6 415.978 163.866 410.643 162.684C405.609 161.574 400.926 163.133 399.771 166.189C399.775 165.887 399.81 165.586 399.874 165.29C400.688 161.61 405.986 159.655 411.712 160.918C417.438 162.18 421.416 166.193 420.603 169.874Z" fill="#F9C543"/>
<path d="M415.798 172.88C413.607 173.655 411.242 173.799 408.973 173.297C406.704 172.795 404.621 171.666 402.961 170.039C402.22 168.422 406.597 167.855 410.009 168.61C413.42 169.365 417.209 172.026 415.798 172.88Z" fill="#F1B104"/>
<path d="M107.449 133.26H257.264V146.976L107.418 134.317C107.022 134.276 107.049 133.26 107.449 133.26Z" fill="#FFF4DE"/>
<path d="M241.111 65.4236H234.809C233.531 65.4236 232.495 66.4598 232.495 67.738V119.352C232.495 120.63 233.531 121.666 234.809 121.666H241.111C242.389 121.666 243.425 120.63 243.425 119.352V67.738C243.425 66.4598 242.389 65.4236 241.111 65.4236Z" fill="white" stroke="#F1B104" stroke-width="3" stroke-miterlimit="10"/>
<path d="M229.56 70.1827H222.036C220.788 70.1827 219.775 71.1948 219.775 72.4432V120.52C219.775 121.768 220.788 122.78 222.036 122.78H229.56C230.808 122.78 231.821 121.768 231.821 120.52V72.4432C231.821 71.1948 230.808 70.1827 229.56 70.1827Z" fill="#F1B104"/>
<path d="M217.667 57.4108H215.636C214.472 57.4108 213.528 58.3544 213.528 59.5185V120.673C213.528 121.837 214.472 122.78 215.636 122.78H217.667C218.832 122.78 219.775 121.837 219.775 120.673V59.5185C219.775 58.3544 218.832 57.4108 217.667 57.4108Z" fill="#D6EAF2"/>
<path d="M210.769 73.9937H205.357C204.081 73.9937 203.047 75.0278 203.047 76.3036V119.805C203.047 121.081 204.081 122.115 205.357 122.115H210.769C212.044 122.115 213.079 121.081 213.079 119.805V76.3036C213.079 75.0278 212.044 73.9937 210.769 73.9937Z" fill="white" stroke="#F1B104" stroke-width="3" stroke-miterlimit="10"/>
<path d="M184.39 122.78H175.635L197.537 64.1023C197.622 63.8749 197.774 63.6787 197.973 63.5399C198.172 63.401 198.409 63.326 198.651 63.3249H204.863C205.057 63.3275 205.248 63.3769 205.419 63.4688C205.59 63.5607 205.736 63.6925 205.845 63.853C205.955 64.0135 206.024 64.1979 206.047 64.3907C206.07 64.5835 206.046 64.779 205.977 64.9607L184.39 122.78Z" fill="#F1B104"/>
<path d="M256.837 122.78H107.778V132.613H256.837V122.78Z" fill="white" stroke="#F1B104" stroke-width="3" stroke-miterlimit="10"/>
<path d="M122.843 100.98H160.453V105.11C160.453 109.798 158.59 114.293 155.275 117.608C151.96 120.923 147.464 122.785 142.776 122.785H140.502C135.814 122.785 131.318 120.923 128.002 117.608C124.687 114.293 122.825 109.798 122.825 105.11V100.98H122.843Z" fill="#F1B104"/>
<path d="M156.691 100.98H128.825C128.825 100.98 120.672 107.627 116.02 102.175C112.65 98.2298 128.776 98.0545 128.776 98.0545L129.261 97.8837C129.261 97.8837 122.344 83.3591 128.884 80.9369C133.378 79.2606 134.493 91.5652 134.726 95.5603C137.104 94.5672 141.742 93.1336 142.142 96.9085C142.142 96.9085 142.659 81.3638 149.172 82.8468C154.588 84.0827 146.556 98.6926 146.556 98.6926L147.118 99.0342C147.118 99.0342 161.999 88.1677 165.648 90.6933C168.408 92.6033 156.691 100.98 156.691 100.98Z" fill="#A1CBE2"/>
<path d="M133.09 100.98C133.09 100.98 133.378 87.579 138.425 87.9475C143.473 88.316 136.439 100.98 136.439 100.98H133.09Z" fill="#D6EAF2"/>
<path d="M133.09 100.98C133.09 100.98 128.03 88.334 121.171 91.5742C114.47 94.7199 128.884 100.98 128.884 100.98H133.09Z" fill="#D6EAF2"/>
<path d="M143.491 100.98C143.491 100.98 148.035 89.5878 155.239 90.6709C162.444 91.7539 146.345 100.98 146.345 100.98H143.491Z" fill="#D6EAF2"/>
<path d="M150.902 100.98C150.902 100.98 164.997 93.8841 167.532 98.1623C170.066 102.441 150.902 100.98 150.902 100.98Z" fill="#D6EAF2"/>
<path d="M317.521 161.294C317.521 161.294 321.234 161.716 324.209 157.281" stroke="#3A1A3F" stroke-width="3" stroke-linecap="round" stroke-linejoin="round"/>
<path d="M332.295 148.567C332.295 148.567 332.295 144.469 335.89 144.522" stroke="#E2564B" stroke-width="3" stroke-linecap="round" stroke-linejoin="round"/>
<path d="M333.126 146.352L335.522 147.47" stroke="#E2564B" stroke-width="3" stroke-linecap="round" stroke-linejoin="round"/>
<path d="M338.704 152.805C339.709 152.805 340.524 151.99 340.524 150.985C340.524 149.98 339.709 149.165 338.704 149.165C337.698 149.165 336.884 149.98 336.884 150.985C336.884 151.99 337.698 152.805 338.704 152.805Z" fill="#FFCDC5"/>
<path d="M315.072 149.165V156.189L316.946 156.948" stroke="#E2564B" stroke-width="3" stroke-linecap="round" stroke-linejoin="round"/>
<path d="M318.236 143.107C318.236 143.107 320.29 141.516 323.836 143.107" stroke="#3A1A3F" stroke-width="3" stroke-linecap="round" stroke-linejoin="round"/>
<path d="M321.67 149.723C322.342 149.605 322.764 148.804 322.611 147.934C322.458 147.063 321.79 146.453 321.117 146.571C320.445 146.689 320.024 147.49 320.176 148.36C320.329 149.231 320.997 149.841 321.67 149.723Z" fill="#242854"/>
<path d="M310.399 152.587C311.064 152.43 311.438 151.606 311.236 150.746C311.034 149.886 310.331 149.316 309.666 149.472C309.002 149.628 308.627 150.452 308.83 151.312C309.032 152.172 309.735 152.743 310.399 152.587Z" fill="#242854"/>
<path d="M253.781 423.227C253.781 423.227 233.079 354.019 231.389 334.632C229.268 310.261 307.908 293.907 307.908 293.907" stroke="#639AD6" stroke-width="3" stroke-miterlimit="10"/>
</svg>
